<?xml version="1.0" standalone="no"?>
<!DOCTYPE svg PUBLIC "-//W3C//DTD SVG 20010904//EN"
 "http://www.w3.org/TR/2001/REC-SVG-20010904/DTD/svg10.dtd">
<svg version="1.0" xmlns="http://www.w3.org/2000/svg"
 width="630.000000pt" height="630.000000pt" viewBox="0 0 630.000000 630.000000"
 preserveAspectRatio="xMidYMid meet">
<metadata>
Created by potrace 1.11, written by Peter Selinger 2001-2013
</metadata>
<g transform="translate(0.000000,630.000000) scale(0.100000,-0.100000)"
fill="#000000" stroke="none">
<path d="M1715 5670 c-241 -22 -491 -151 -681 -352 -282 -300 -385 -723 -268
-1108 46 -151 150 -337 263 -470 78 -92 334 -350 347 -350 15 0 314 310 314
325 0 5 -93 109 -206 230 -222 237 -239 259 -274 350 -31 81 -40 306 -16 408
29 123 109 254 208 341 63 55 182 118 258 137 82 20 232 16 307 -8 151 -50
220 -113 953 -883 107 -113 247 -259 311 -325 63 -66 174 -181 245 -255 72
-74 175 -182 230 -238 l99 -104 98 104 c54 56 126 131 160 165 l61 63 -84 87
c-132 138 -287 300 -385 403 -167 177 -353 372 -595 625 -147 154 -443 466
-525 553 -38 40 -96 94 -129 119 -175 133 -447 205 -691 183z"/>
<path d="M4372 5669 c-144 -17 -308 -80 -454 -174 -124 -80 -210 -159 -389
-355 -142 -156 -140 -153 -137 -161 2 -4 74 -80 161 -170 l159 -162 219 225
c220 227 262 261 355 292 70 23 218 35 299 24 304 -41 545 -325 545 -643 0
-199 -68 -328 -306 -579 -202 -212 -1143 -1194 -1327 -1384 l-120 -123 25 -27
c13 -15 85 -91 158 -170 l134 -143 95 98 c53 54 161 166 240 248 80 83 199
206 266 275 66 69 186 193 265 275 126 130 393 408 720 748 135 141 193 232
248 392 46 134 57 211 56 390 -1 139 -4 173 -26 255 -59 217 -162 395 -318
550 -107 107 -200 172 -326 231 -161 76 -370 110 -542 88z"/>
<path d="M2469 4033 c-74 -76 -254 -262 -399 -413 -145 -151 -319 -331 -385
-400 -269 -278 -417 -431 -536 -555 -193 -200 -235 -251 -297 -365 -88 -162
-132 -340 -132 -530 0 -243 57 -432 193 -637 229 -346 628 -546 999 -503 274
32 515 164 754 413 141 147 244 262 244 273 0 5 -71 83 -158 173 l-157 163
-231 -235 c-249 -252 -275 -272 -399 -297 -89 -19 -238 -17 -315 4 -202 55
-378 226 -443 431 -18 59 -22 93 -22 210 0 135 2 143 32 212 51 119 126 215
352 448 127 132 249 259 566 590 239 250 394 412 576 600 69 71 146 153 171
180 l46 50 -151 160 c-83 88 -155 161 -161 163 -6 1 -72 -59 -147 -135z"/>
<path d="M2347 2771 c-86 -89 -157 -166 -157 -170 0 -5 64 -76 142 -158 78
-81 182 -191 232 -243 49 -52 133 -140 186 -195 52 -55 183 -192 290 -305 107
-113 237 -250 290 -305 53 -55 143 -149 200 -210 57 -60 167 -173 245 -250
127 -127 149 -145 240 -191 253 -130 523 -153 784 -69 387 126 684 468 773
890 16 77 15 321 -1 405 -16 80 -70 238 -105 308 -34 68 -88 152 -145 227 -55
74 -380 405 -397 405 -6 0 -26 -17 -44 -37 -18 -21 -86 -93 -152 -160 -83 -84
-117 -126 -112 -135 5 -7 101 -111 214 -231 231 -246 261 -290 286 -427 58
-306 -67 -595 -317 -737 -213 -121 -442 -106 -636 42 -97 74 -105 82 -868 880
-115 121 -320 334 -455 475 -136 140 -266 277 -291 303 l-45 49 -157 -161z"/>
</g>
</svg>
