<?xml version="1.0" standalone="no"?>
<!DOCTYPE svg PUBLIC "-//W3C//DTD SVG 20010904//EN"
 "http://www.w3.org/TR/2001/REC-SVG-20010904/DTD/svg10.dtd">
<svg version="1.0" xmlns="http://www.w3.org/2000/svg"
 width="600.000000pt" height="600.000000pt" viewBox="0 0 600.000000 600.000000"
 preserveAspectRatio="xMidYMid meet">
<metadata>
Created by potrace 1.11, written by Peter Selinger 2001-2013
</metadata>
<g transform="translate(0.000000,600.000000) scale(0.100000,-0.100000)"
fill="#000000" stroke="none">
<path d="M2795 5990 c-622 -46 -1203 -274 -1685 -664 -105 -85 -308 -284 -398
-391 -381 -453 -616 -994 -688 -1586 -22 -179 -22 -519 0 -698 63 -520 255
-1007 559 -1421 503 -684 1258 -1118 2107 -1211 148 -16 472 -16 620 0 768 84
1459 446 1959 1026 901 1045 971 2567 171 3695 -185 260 -447 521 -710 707
-403 285 -888 471 -1370 527 -167 19 -418 26 -565 16z m1783 -1120 c118 -28
204 -96 259 -208 l38 -76 0 -1110 0 -1111 -23 -57 c-43 -105 -114 -178 -222
-224 -44 -18 -92 -19 -1600 -22 -1016 -2 -1571 1 -1602 8 -154 32 -268 149
-298 305 -8 43 -10 358 -8 1136 l3 1075 38 76 c54 110 129 172 247 204 58 16
3100 19 3168 4z m-1112 -3047 c18 -148 71 -246 158 -290 47 -25 63 -27 216
-33 98 -3 174 -10 186 -17 34 -19 81 -78 94 -118 33 -99 -37 -210 -147 -236
-50 -11 -1896 -11 -1946 0 -110 26 -180 137 -147 236 13 40 60 99 94 118 12 7
88 14 186 17 145 5 171 9 213 29 86 42 143 146 161 294 l7 57 459 0 459 0 7
-57z"/>
<path d="M1435 4565 l-25 -24 0 -1074 0 -1074 26 -24 26 -24 1540 0 1540 0 24
28 24 28 0 1070 0 1070 -25 24 -24 25 -1541 0 -1541 0 -24 -25z"/>
</g>
</svg>
